:SAMPLES-PER-SECOND 30
:FULLY-SPECIFIED
:DEGREES
62
root  -31.8012 39.2242 -20.7049 -146.82 -78.4593 147.585
RightUpLeg  -25.7514 -12.3068 -10.2671
RightLeg  3.20002 -13.5602 4.56877
RightFoot  4.66515 -1.1254 8.23687
RightToes  0.000482159 0.542163 -0.142577
Spine  36.1121 -2.70496 2.7145
Spine1  11.6966 -1.44762 -1.8317
HEad  -7.63121 -7.48834 -4.53085
LeftShoulder1  10.4564 -18.865 -40.4352
LeftArm  -6.44972 -19.4516 -32.4612
LeftForeArm  23.6464 -25.1245 -4.11907
LeftHand  -0.25398 0.0180481 5.50724
RightShoulder  6.19516 12.614 32.4831
RightArm  -0.373281 29.9442 36.8464
RightForeArm  7.7672 15.0652 6.65734
RightHand  -1.45275 4.76685 -16.8518
LeftUpLeg  -18.4645 15.586 -11.9481
LeftLeg  27.5101 4.03818 2.62814
LeftFoot  -11.1555 0.055369 6.31754
LeftToes  1.06247e-005 4.65855e-005 -8.18504e-006
63
root  -32.4423 38.8579 -21.2804 -138.524 -80.0124 139.969
RightUpLeg  -28.0666 -13.1857 -9.85508
RightLeg  6.49091 -14.0782 3.80632
RightFoot  8.1972 -0.71575 4.58448
RightToes  0.000482159 0.542163 -0.142577
Spine  37.7237 -3.21415 4.11014
Spine1  11.485 -1.75657 -1.46429
HEad  -8.87689 -9.26212 -3.91702
LeftShoulder1  10.3624 -19.2965 -39.1985
LeftArm  -4.88546 -24.1975 -33.0485
LeftForeArm  21.8997 -23.2729 -3.90276
LeftHand  -0.25398 0.0180481 5.50724
RightShoulder  6.02104 12.5236 31.6104
RightArm  -2.69943 30.5042 35.6615
RightForeArm  7.76648 14.3504 6.7576
RightHand  -1.52369 5.07672 -17.1457
LeftUpLeg  -20.8492 12.9109 -11.5273
LeftLeg  33.0085 4.70468 3.63637
LeftFoot  -12.308 0.116933 5.1871
LeftToes  1.06247e-005 4.65855e-005 -8.18504e-006
64
root  -32.9906 38.4658 -21.8305 -133.004 -81.5087 135.433
RightUpLeg  -32.2031 -16.4609 -6.98981
RightLeg  12.6961 -11.0375 2.44739
RightFoot  12.108 0.329375 -1.20491
RightToes  0.000482159 0.542163 -0.142577
Spine  39.7188 -3.91309 6.61869
Spine1  10.7679 -1.55336 -1.75678
HEad  -10.5925 -11.2197 -3.34526
LeftShoulder1  10.394 -19.8235 -38.3374
LeftArm  -3.50254 -29.3413 -33.1589
LeftForeArm  21.2038 -20.8809 -4.06631
LeftHand  -0.25398 0.0180481 5.50724
RightShoulder  5.84374 12.4672 30.6238
RightArm  -6.42693 31.5836 33.9848
RightForeArm  8.27986 12.4315 7.03801
RightHand  -1.69362 5.83076 -17.7747
LeftUpLeg  -25.7176 11.5284 -10.4428
LeftLeg  41.5791 4.69535 4.84948
LeftFoot  -10.5488 0.0613445 2.14749
LeftToes  1.06247e-005 4.65855e-005 -8.18504e-006
65
root  -33.4651 38.099 -22.3457 -135.871 -82.8614 139.278
RightUpLeg  -37.5387 -23.1734 0.241646
RightLeg  18.8019 -3.0323 0.962679
RightFoot  12.8467 1.38187 -6.08094
RightToes  0.000482159 0.542163 -0.142577
Spine  42.1292 -4.63317 9.37637
Spine1  10.2664 -1.0185 -2.18787
HEad  -13.1084 -12.6011 -2.87283
LeftShoulder1  10.3326 -20.2181 -37.3669
LeftArm  -4.28572 -34.517 -33.0541
LeftForeArm  22.1484 -18.6501 -4.65188
LeftHand  -0.25398 0.0180481 5.50724
RightShoulder  5.67201 12.8032 28.7871
RightArm  -10.6615 33.8792 32.389
RightForeArm  8.99745 9.34163 7.14781
RightHand  -1.82181 6.41005 -18.1865
LeftUpLeg  -32.1359 11.7162 -8.63958
LeftLeg  51.3486 4.70866 6.77422
LeftFoot  -5.33995 0.0454301 -0.371578
LeftToes  1.06247e-005 4.65855e-005 -8.18504e-006
66
root  -33.8815 37.7939 -22.8306 -146.561 -83.7234 150.799
RightUpLeg  -41.6024 -25.9263 6.07261
RightLeg  23.5461 0.796412 -0.0553205
RightFoot  10.3288 1.63556 -8.13862
RightToes  0.000482159 0.542163 -0.142577
Spine  44.8116 -5.2089 11.5055
Spine1  10.5171 -0.508358 -2.37744
HEad  -16.2283 -13.173 -2.14809
LeftShoulder1  10.0185 -20.5054 -35.5844
LeftArm  -7.32097 -39.4723 -32.8399
LeftForeArm  23.5505 -16.6668 -5.15555
LeftHand  -0.25398 0.0180481 5.50724
RightShoulder  5.52084 13.5271 26.3363
RightArm  -14.0289 37.603 30.7673
RightForeArm  9.25609 5.58084 6.70399
RightHand  -1.71084 6.05268 -17.6097
LeftUpLeg  -38.1223 12.7796 -6.88603
LeftLeg  58.5766 4.85161 9.02939
LeftFoot  0.0501903 -0.00888532 0.0109501
LeftToes  1.06247e-005 4.65855e-005 -8.18504e-006
67
root  -34.257 37.6302 -23.3051 -151.587 -83.8635 157.099
RightUpLeg  -43.6437 -25.329 7.71555
RightLeg  26.3493 0.183733 -0.139184
RightFoot  7.71981 1.46598 -8.38869
RightToes  0.000482159 0.542163 -0.142577
Spine  47.2742 -5.35262 12.3194
Spine1  11.5046 -0.066349 -2.25997
HEad  -19.4906 -13.7015 -1.1224
LeftShoulder1  9.86617 -21.2581 -33.7165
LeftArm  -11.6147 -44.3824 -31.7413
LeftForeArm  24.5754 -14.2693 -5.58979
LeftHand  -0.25398 0.0180481 5.50724
RightShoulder  5.32649 14.1128 24.0438
RightArm  -17.1989 41.8667 28.0233
RightForeArm  9.10515 1.97855 6.01346
RightHand  -1.47138 5.21453 -16.379
LeftUpLeg  -42.6835 13.6125 -6.64715
LeftLeg  60.5832 4.86253 9.82152
LeftFoot  1.30725 -0.230457 2.08596
LeftToes  1.06247e-005 4.65855e-005 -8.18504e-006
68
root  -34.6113 37.6464 -23.76 -144.213 -83.8042 151.989
RightUpLeg  -46.3161 -25.9172 9.14171
RightLeg  27.4291 0.721253 0.167232
RightFoot  6.53767 1.36799 -8.38961
RightToes  0.000482159 0.542163 -0.142577
Spine  49.1579 -5.01147 12.1402
Spine1  12.085 0.36864 -1.72733
HEad  -22.4455 -14.7648 -0.239627
LeftShoulder1  10.2751 -22.7103 -33.0351
LeftArm  -15.8588 -49.2539 -29.2217
LeftForeArm  25.0321 -11.2003 -6.05939
LeftHand  -0.25398 0.0180481 5.50724
RightShoulder  5.04075 14.2079 22.1691
RightArm  -20.7739 45.3805 23.658
RightForeArm  7.84639 -0.557527 5.55309
RightHand  -1.38112 5.00725 -15.6999
LeftUpLeg  -46.0981 13.7357 -8.14791
LeftLeg  57.0746 4.69993 8.33779
LeftFoot  -1.52297 -0.216504 2.51129
LeftToes  1.06247e-005 4.65855e-005 -8.18504e-006
69
root  -34.976 37.7371 -24.1827 -133.357 -83.6666 144.184
RightUpLeg  -49.6729 -26.4212 10.6735
RightLeg  27.8326 1.22382 0.462604
RightFoot  5.76423 1.31392 -8.45133
RightToes  0.000482159 0.542163 -0.142577
Spine  51.8158 -5.00257 11.9176
Spine1  10.1684 0.74938 -1.8832
HEad  -24.2626 -15.714 0.60868
LeftShoulder1  10.6894 -24.0635 -32.5929
LeftArm  -18.8897 -52.9303 -26.3947
LeftForeArm  24.7531 -8.42174 -6.24396
LeftHand  -0.25398 0.0180481 5.50724
RightShoulder  4.89174 14.2152 21.2659
RightArm  -23.6533 47.3452 18.5763
RightForeArm  4.77441 -1.50336 5.64467
RightHand  -1.46931 5.51859 -15.9218
LeftUpLeg  -48.6695 13.8109 -10.3821
LeftLeg  49.4334 4.13777 5.63364
LeftFoot  -4.96982 0.0430639 -0.245006
LeftToes  1.06247e-005 4.65855e-005 -8.18504e-006
70
root  -35.3728 37.7724 -24.5686 -126.508 -83.3024 140.851
RightUpLeg  -53.4304 -26.0834 12.4911
RightLeg  28.2875 1.42257 0.591774
RightFoot  4.7728 1.2653 -8.68511
RightToes  0.000482159 0.542163 -0.142577
Spine  53.5505 -5.2712 11.8779
Spine1  9.60898 1.17914 -3.00333
HEad  -26.5153 -16.1843 2.00882
LeftShoulder1  10.2641 -25.0798 -29.6927
LeftArm  -22.3378 -56.2623 -24.6879
LeftForeArm  24.0439 -6.52462 -5.46732
LeftHand  -0.25398 0.0180481 5.50724
RightShoulder  4.74373 14.4948 19.9194
RightArm  -27.3057 49.1028 13.5673
RightForeArm  1.11499 -1.58185 5.63587
RightHand  -1.53274 5.92699 -16.0202
LeftUpLeg  -50.7632 14.6616 -13.2141
LeftLeg  40.0024 3.45548 3.47367
LeftFoot  -5.97358 0.156051 -2.46907
LeftToes  1.06247e-005 4.65855e-005 -8.18504e-006
71
root  -35.7854 37.6997 -24.9036 -123.905 -82.7527 142.025
RightUpLeg  -57.5197 -25.0902 14.5425
RightLeg  29.0589 1.62688 0.740174
RightFoot  3.96414 1.28883 -9.36068
RightToes  0.000482159 0.542163 -0.142577
Spine  54.1091 -5.3107 11.8538
Spine1  10.6169 1.89011 -4.33691
HEad  -29.1395 -16.5894 3.62802
LeftShoulder1  9.38972 -26.1684 -25.2575
LeftArm  -26.7305 -59.1442 -23.6548
LeftForeArm  23.0494 -5.45453 -4.0651
LeftHand  -0.25398 0.0180481 5.50724
RightShoulder  4.49328 14.8231 17.9474
RightArm  -32.0645 50.5414 8.18799
RightForeArm  -1.7111 -1.51203 5.28722
RightHand  -1.42855 5.71565 -15.2319
LeftUpLeg  -53.1682 15.7855 -16.5202
LeftLeg  32.2497 3.17358 2.49785
LeftFoot  -4.08929 0.0213175 -0.13977
LeftToes  1.06247e-005 4.65855e-005 -8.18504e-006
72
root  -36.1877 37.5375 -25.1885 -122.923 -82.4761 144.574
RightUpLeg  -61.6542 -24.1065 16.7915
RightLeg  30.4152 1.87974 0.950157
RightFoot  3.24597 1.35013 -10.338
RightToes  0.000482159 0.542163 -0.142577
Spine  55.8452 -5.30844 11.4834
Spine1  9.30117 2.18235 -4.67216
HEad  -30.5178 -16.2567 4.12442
LeftShoulder1  8.94215 -26.5278 -23.3052
LeftArm  -30.4049 -61.068 -21.0908
LeftForeArm  20.8171 -4.74174 -3.32813
LeftHand  -0.25398 0.0180481 5.50724
RightShoulder  4.29365 15.7297 15.5463
RightArm  -35.9753 51.0078 3.34467
RightForeArm  -3.38417 -1.73846 4.94241
RightHand  -1.2463 5.20058 -13.9713
LeftUpLeg  -56.3386 15.818 -18.5668
LeftLeg  29.4546 3.27012 2.34536
LeftFoot  -1.5856 -0.356192 4.33904
LeftToes  1.06247e-005 4.65855e-005 -8.18504e-006
73
root  -36.5776 37.3241 -25.4619 -122.08 -82.7428 146.464
RightUpLeg  -65.2586 -23.4216 18.9465
RightLeg  32.4692 1.86837 1.03
RightFoot  2.14242 1.36098 -11.3426
RightToes  0.000482159 0.542163 -0.142577
Spine  57.7699 -5.3112 11.4784
Spine1  7.91256 2.27787 -4.34826
HEad  -31.8943 -15.8775 4.35564
LeftShoulder1  8.68248 -27.0053 -21.9057
LeftArm  -34.5958 -63.2281 -17.1966
LeftForeArm  17.4741 -3.55917 -2.77494
LeftHand  -0.25398 0.0180481 5.50724
RightShoulder  4.0345 16.4854 13.1902
RightArm  -40.1108 51.1567 -2.29507
RightForeArm  -5.36371 -2.11695 4.63783
RightHand  -1.09885 4.81618 -12.8146
LeftUpLeg  -59.7502 14.857 -18.4101
LeftLeg  31.336 3.43742 2.61004
LeftFoot  -0.834659 -0.567529 6.24114
LeftToes  1.06247e-005 4.65855e-005 -8.18504e-006
74
root  -36.9723 37.0846 -25.7569 -120.55 -83.1483 146.947
RightUpLeg  -68.1953 -22.8667 20.6368
RightLeg  34.9186 1.52146 0.879844
RightFoot  0.77827 1.34055 -12.5158
RightToes  0.000482159 0.542163 -0.142577
Spine  59.9299 -5.38915 11.4337
Spine1  6.73869 2.1449 -4.07208
HEad  -33.2484 -15.2757 4.84534
LeftShoulder1  8.39669 -27.4386 -20.4931
LeftArm  -40.1476 -65.3959 -11.5382
LeftForeArm  13.6218 -2.14145 -2.1983
LeftHand  -0.25398 0.0180481 5.50724
RightShoulder  3.81505 17.144 11.299
RightArm  -44.5318 50.959 -8.04491
RightForeArm  -8.01745 -2.17184 4.30027
RightHand  -0.998443 4.63787 -11.8777
LeftUpLeg  -62.8088 14.4395 -17.9089
LeftLeg  34.4285 3.08395 2.6309
LeftFoot  -1.74626 -0.454413 5.52542
LeftToes  1.06247e-005 4.65855e-005 -8.18504e-006
